# xmcd
#
# Track frame offsets:
#	150
#	12906
#	25656
#	41527
#	52000
#	65520
#	82660
#	98566
#	110417
#	127653
#	142213
#	156244
#	170741
#	186888
#
# Disc length: 2657 seconds
#
# Revision: 1
# Processed by: cddbd v1.5.2PL0 Copyright (c) Steve Scherf et al.
# Submitted via: audiograbber 1.83.01
#
DISCID=b10a5f0e
DTITLE=Truck Stop - 6 Richtige
DYEAR=2010
DGENRE=Country
TTITLE0=Was soll'n wir denn in Nashville
TTITLE1=Einfach mal nichts tun
TTITLE2=Halt mal eben mein Bier
TTITLE3=Hello I'm Johnny Cash
TTITLE4=Ju kän Denglish
TTITLE5=Freiheit um die Nase
TTITLE6=Ein Cowboy ohne Pferd
TTITLE7=Rodeo
TTITLE8=Es liegt in Menschenhand
TTITLE9=Ich bin wieder frei
TTITLE10=HH für Hamburg
TTITLE11=Sicherheitsgurt
TTITLE12=Auf dem Highway der Gefühle
TTITLE13=100.000 Kilometer
EXTD=
EXTT0=
EXTT1=
EXTT2=
EXTT3=
EXTT4=
EXTT5=
EXTT6=
EXTT7=
EXTT8=
EXTT9=
EXTT10=
EXTT11=
EXTT12=
EXTT13=
PLAYORDER=
